<svg width="24" height="24" viewBox="0 0 24 24" fill="none" xmlns="http://www.w3.org/2000/svg">
<path d="M11.2929 10.293C11.6834 9.90244 12.3164 9.90244 12.707 10.293C13.0975 10.6835 13.0975 11.3165 12.707 11.707L9.41399 15H14.8027C15.3781 15 15.7504 14.9997 16.0331 14.9766C16.3029 14.9545 16.4036 14.9167 16.453 14.8916L16.5878 14.8086C16.7148 14.7161 16.8196 14.5942 16.8915 14.4531L16.912 14.4053C16.9342 14.3436 16.9599 14.2363 16.9765 14.0332C16.9996 13.7504 16.9999 13.3782 16.9999 12.8027V3C16.9999 2.44772 17.4476 2 17.9999 2C18.5522 2 18.9999 2.44772 18.9999 3V12.8027C18.9999 13.345 19.0009 13.8122 18.9697 14.1953C18.9414 14.5407 18.8832 14.885 18.7402 15.2188L18.6728 15.3613C18.4211 15.8552 18.0383 16.2693 17.5683 16.5576L17.3613 16.6729C16.9832 16.8655 16.5901 16.9374 16.1952 16.9697C15.8122 17.001 15.3449 17 14.8027 17H9.41399L12.707 20.293L12.7753 20.3691C13.0957 20.7619 13.0731 21.3409 12.707 21.707C12.3408 22.0731 11.7618 22.0957 11.3691 21.7754L11.2929 21.707L6.29289 16.707C5.90237 16.3165 5.90237 15.6835 6.29289 15.293L11.2929 10.293Z" fill="#545454"/>
</svg>
