<svg width="24" height="24" viewBox="0 0 24 24" fill="none" xmlns="http://www.w3.org/2000/svg">
<path d="M6 21V11.2002C6 10.6566 5.99893 10.1885 6.03028 9.8047C6.06258 9.40942 6.13437 9.01606 6.32715 8.6377L6.44239 8.43165C6.73057 7.96159 7.14368 7.57891 7.6377 7.32716L7.78028 7.25978C8.1144 7.11657 8.45886 7.05855 8.80469 7.03028C9.18845 6.99894 9.65664 7.00001 10.2002 7.00001H15.5859L12.293 3.70704L12.2246 3.63087C11.9043 3.2381 11.9269 2.65909 12.293 2.29298C12.6591 1.92686 13.2381 1.90427 13.6309 2.22462L13.707 2.29298L18.707 7.29298C19.0976 7.6835 19.0976 8.31652 18.707 8.70704L13.707 13.707C13.3165 14.0976 12.6835 14.0976 12.293 13.707C11.9024 13.3165 11.9024 12.6835 12.293 12.293L15.5859 9.00001H10.2002C9.62366 9.00001 9.25124 9.00127 8.96778 9.02442C8.76443 9.04104 8.65672 9.06568 8.59473 9.0879L8.5459 9.10938C8.40473 9.18133 8.28365 9.2852 8.19141 9.41212L8.10938 9.54591C8.08422 9.59529 8.04662 9.69598 8.02442 9.96778C8.00127 10.2512 8 10.6237 8 11.2002V21C8 21.5523 7.55229 22 7 22C6.44772 22 6 21.5523 6 21Z" fill="#545454"/>
</svg>
