<svg width="24" height="24" viewBox="0 0 24 24" fill="none" xmlns="http://www.w3.org/2000/svg">
<path d="M16.9999 21V11.1973C16.9999 10.6218 16.9996 10.2497 16.9765 9.96681C16.9598 9.76296 16.9343 9.65546 16.912 9.59376L16.8915 9.54591C16.8199 9.40532 16.7153 9.28394 16.5878 9.19142L16.453 9.10938C16.4035 9.08417 16.3031 9.0456 16.0322 9.02345C15.7489 9.0003 15.3763 9.00001 14.7997 9.00001H9.41399L12.707 12.293L12.7753 12.3692C13.0957 12.7619 13.0731 13.3409 12.707 13.707C12.3408 14.0732 11.7618 14.0958 11.3691 13.7754L11.2929 13.707L6.29289 8.70704C5.90237 8.31652 5.90237 7.6835 6.29289 7.29298L11.2929 2.29298L11.3691 2.22462C11.7618 1.90427 12.3408 1.92686 12.707 2.29298C13.0731 2.65909 13.0957 3.2381 12.7753 3.63087L12.707 3.70704L9.41399 7.00001H14.7997C15.3433 7.00001 15.8116 6.99893 16.1952 7.03028C16.5904 7.0626 16.9831 7.13451 17.3613 7.32716L17.5683 7.44239C18.0377 7.73017 18.4208 8.1432 18.6728 8.6377L18.7402 8.78028C18.8833 9.11418 18.9414 9.45828 18.9697 9.80372C19.001 10.187 18.9999 10.6548 18.9999 11.1973V21C18.9999 21.5523 18.5522 22 17.9999 22C17.4476 22 16.9999 21.5523 16.9999 21Z" fill="#545454"/>
</svg>
