<svg width="24" height="24" viewBox="0 0 24 24" fill="none" xmlns="http://www.w3.org/2000/svg">
<path d="M12.293 10.293C12.6591 9.92685 13.2381 9.90426 13.6309 10.2246L13.707 10.293L18.707 15.293C19.0976 15.6835 19.0976 16.3165 18.707 16.707L13.707 21.707C13.3165 22.0976 12.6835 22.0976 12.293 21.707C11.9024 21.3165 11.9024 20.6835 12.293 20.293L15.5859 17H10.1973C9.6548 17 9.187 17.001 8.80372 16.9697C8.45828 16.9415 8.11417 16.8834 7.78028 16.7402L7.6377 16.6729C7.1432 16.4208 6.73017 16.0377 6.44239 15.5684L6.32715 15.3613C6.13451 14.9832 6.0626 14.5904 6.03028 14.1953C5.99893 13.8117 6 13.3433 6 12.7998V3C6 2.44772 6.44772 2 7 2C7.55229 2 8 2.44772 8 3V12.7998C8 13.3764 8.00029 13.749 8.02344 14.0322C8.0456 14.3031 8.08417 14.4036 8.10938 14.4531L8.19141 14.5879C8.28394 14.7153 8.40531 14.82 8.5459 14.8916L8.59375 14.9121C8.65546 14.9343 8.76296 14.9599 8.9668 14.9766C9.24974 14.9997 9.62182 15 10.1973 15H15.5859L12.293 11.707L12.2246 11.6309C11.9043 11.2381 11.9269 10.6591 12.293 10.293Z" fill="#545454"/>
</svg>
