<svg width="24" height="24" viewBox="0 0 24 24" fill="none" xmlns="http://www.w3.org/2000/svg">
<path fill-rule="evenodd" clip-rule="evenodd" d="M12 4C9.23858 4 7 6.23858 7 9L7 15C7 15.5523 6.55228 16 6 16C5.44772 16 5 15.5523 5 15L5 9C5 5.13401 8.13401 2 12 2C15.866 2 19 5.13401 19 9V17C19 19.7614 16.7614 22 14 22C11.2386 22 9 19.7614 9 17V9C9 7.34315 10.3431 6 12 6C13.6569 6 15 7.34315 15 9V17C15 17.5523 14.5523 18 14 18C13.4477 18 13 17.5523 13 17V9C13 8.44772 12.5523 8 12 8C11.4477 8 11 8.44772 11 9V17C11 18.6569 12.3431 20 14 20C15.6569 20 17 18.6569 17 17V9C17 6.23858 14.7614 4 12 4Z" fill="#545454"/>
</svg>
