<svg width="24" height="24" viewBox="0 0 24 24" fill="none" xmlns="http://www.w3.org/2000/svg">
<path d="M19 9H5V18C5 18.5523 5.44772 19 6 19H18C18.5523 19 19 18.5523 19 18V9ZM21 18C21 19.6569 19.6569 21 18 21H6C4.34315 21 3 19.6569 3 18V8L3.00488 7.89746C3.05621 7.39333 3.48232 7 4 7H20L20.1025 7.00488C20.6067 7.05621 21 7.48232 21 8V18Z" fill="#545454"/>
<path d="M16 3L16.0986 3.00488C16.3276 3.02757 16.5429 3.12883 16.707 3.29297L20.707 7.29297C20.993 7.57897 21.0786 8.00914 20.9238 8.38281C20.769 8.75641 20.4044 9 20 9H3.99997C3.59556 9 3.23095 8.75641 3.07614 8.38281C2.92136 8.00914 3.00694 7.57897 3.29294 7.29297L7.29294 3.29297L7.36618 3.22656C7.54414 3.08073 7.76788 3 7.99997 3H16ZM6.41403 7H17.5859L15.5859 5H8.41403L6.41403 7Z" fill="#545454"/>
<path d="M12 11C12.5523 11 13 11.4477 13 12C13 12.5523 12.5523 13 12 13H8C7.44772 13 7 12.5523 7 12C7 11.4477 7.44772 11 8 11H12Z" fill="#545454"/>
</svg>
