<svg width="24" height="24" viewBox="0 0 24 24" fill="none" xmlns="http://www.w3.org/2000/svg">
<path fill-rule="evenodd" clip-rule="evenodd" d="M2.29065 7.9174C2.50116 7.68688 2.79894 7.55556 3.11111 7.55556H20.8889C21.2011 7.55556 21.4988 7.68688 21.7094 7.9174C21.9199 8.14792 22.0237 8.45637 21.9954 8.76726L21.0681 18.9684C20.912 20.6854 19.4724 22 17.7484 22H6.25159C4.52758 22 3.08803 20.6854 2.93195 18.9685L2.00457 8.76726C1.9763 8.45637 2.08013 8.14792 2.29065 7.9174ZM4.32782 9.77778L5.14504 18.7673C5.19707 19.3396 5.67692 19.7778 6.25159 19.7778H17.7484C18.3231 19.7778 18.8029 19.3396 18.855 18.7673L19.6722 9.77778H4.32782Z" fill="#545454"/>
<path fill-rule="evenodd" clip-rule="evenodd" d="M12 4.22222C10.159 4.22222 8.66666 5.71461 8.66666 7.55556V10.8889C8.66666 11.5025 8.1692 12 7.55555 12C6.9419 12 6.44444 11.5025 6.44444 10.8889V7.55556C6.44444 4.48731 8.93175 2 12 2C15.0682 2 17.5555 4.48731 17.5555 7.55556V10.8889C17.5555 11.5025 17.0581 12 16.4444 12C15.8308 12 15.3333 11.5025 15.3333 10.8889V7.55556C15.3333 5.71461 13.8409 4.22222 12 4.22222Z" fill="#545454"/>
</svg>
