<svg width="24" height="24" viewBox="0 0 24 24" fill="none" xmlns="http://www.w3.org/2000/svg">
<path d="M20 12C20 7.58172 16.4183 4 12 4C7.58172 4 4 7.58172 4 12C4 16.4183 7.58172 20 12 20C16.4183 20 20 16.4183 20 12ZM13.5 14C13.5 13.63 13.2987 13.3077 13 13.1348V14.8643C13.2984 14.6912 13.5 14.3698 13.5 14ZM13.4951 9.89746C13.4619 9.57088 13.2707 9.29155 13 9.13477V11.041C14.4189 11.279 15.5 12.5135 15.5 14C15.5 15.4865 14.4188 16.7199 13 16.958V17.5C13 18.0523 12.5523 18.5 12 18.5C11.4477 18.5 11 18.0523 11 17.5V16.958C9.58118 16.7199 8.5 15.4865 8.5 14C8.5 13.4477 8.94772 13 9.5 13C10.0177 13 10.4438 13.3933 10.4951 13.8975L10.5049 14.1025C10.5381 14.4289 10.7295 14.7074 11 14.8643V12.958C9.58118 12.7199 8.5 11.4865 8.5 10C8.5 8.51348 9.58111 7.27902 11 7.04102V6.5C11 5.94772 11.4477 5.5 12 5.5C12.5523 5.5 13 5.94772 13 6.5V7.04102C14.4189 7.27902 15.5 8.51348 15.5 10C15.5 10.5523 15.0523 11 14.5 11C13.9823 11 13.5562 10.6067 13.5049 10.1025L13.4951 9.89746ZM22 12C22 17.5228 17.5228 22 12 22C6.47715 22 2 17.5228 2 12C2 6.47715 6.47715 2 12 2C17.5228 2 22 6.47715 22 12ZM10.5 10C10.5 10.3698 10.7016 10.6912 11 10.8643V9.13477C10.7013 9.30773 10.5 9.63003 10.5 10Z" fill="#545454"/>
</svg>
