<svg width="24" height="24" viewBox="0 0 24 24" fill="none" xmlns="http://www.w3.org/2000/svg">
<path fill-rule="evenodd" clip-rule="evenodd" d="M9 5C6.23858 5 4 7.23858 4 10C4 10.9855 4.28398 11.9015 4.77427 12.6742C4.93535 12.9281 4.97365 13.241 4.87857 13.5262L4.58109 14.4186L5.4739 14.1211C5.7591 14.0261 6.07193 14.0644 6.32577 14.2254C7.09858 14.7158 8.01462 14.9998 9.00006 14.9998C9.09501 14.9998 9.18924 14.9972 9.28269 14.992C11.9122 14.8459 14 12.6665 14 10C14 7.23858 11.7614 5 9 5ZM2 10C2 6.13401 5.13401 3 9 3C11.7954 3 14.2081 4.63858 15.33 7.00764C19.0428 7.17995 21.9995 10.2447 21.9995 14C21.9995 15.2004 21.6973 16.3336 21.1623 17.3237L21.4533 18.1966C21.5254 18.4127 21.5995 18.635 21.6437 18.8237C21.6866 19.0068 21.7524 19.3478 21.6222 19.7129C21.4721 20.1337 21.1413 20.4698 20.7139 20.6222C20.3483 20.7526 20.0067 20.6862 19.8244 20.6434C19.6368 20.5993 19.4158 20.5256 19.2014 20.4541C19.1975 20.4528 19.1937 20.4515 19.1899 20.4502C19.1818 20.4478 19.1738 20.4452 19.1658 20.4425L18.3235 20.1618C17.3343 20.6965 16.2016 21.0002 15.0001 21.0002C12.2033 21.0002 9.79166 19.3604 8.67029 16.9922C7.59147 16.942 6.57483 16.6472 5.6764 16.1618L4.83372 16.4426C4.82758 16.4446 4.82143 16.4466 4.81525 16.4485C4.80815 16.4509 4.80105 16.4533 4.79393 16.4556C4.58107 16.5266 4.3612 16.6 4.17441 16.6438C3.9921 16.6866 3.65182 16.7522 3.28717 16.6222C2.86462 16.4715 2.52925 16.1386 2.37748 15.713C2.24717 15.3475 2.31332 15.0062 2.35618 14.8237C2.40023 14.6362 2.47393 14.4152 2.54547 14.2008C2.54916 14.1897 2.55283 14.1787 2.5565 14.1677C2.55754 14.1646 2.5586 14.1614 2.55968 14.1583L2.83793 13.3235C2.30331 12.3341 2 11.2013 2 10ZM10.8288 16.7584C11.7245 18.11 13.2592 19.0002 15.0001 19.0002C15.9854 19.0002 16.9012 18.7159 17.6741 18.2255C17.9279 18.0644 18.2408 18.0261 18.5261 18.1211L19.4192 18.4188L19.1216 17.5262C19.029 17.2484 19.0628 16.944 19.2141 16.6933L19.3498 16.4684C19.7633 15.7417 19.9995 14.9002 19.9995 14C19.9995 11.5602 18.2525 9.52874 15.9412 9.08846C15.98 9.38681 16 9.69107 16 10C16 13.2334 13.8082 15.9542 10.8288 16.7584Z" fill="#545454"/>
</svg>
