<svg width="24" height="24" viewBox="0 0 24 24" fill="none" xmlns="http://www.w3.org/2000/svg">
<path d="M17.8389 2C18.3659 1.99998 18.8209 1.99967 19.1953 2.03028C19.5905 2.06261 19.9832 2.13448 20.3613 2.32715C20.9246 2.61418 21.3847 3.07225 21.6729 3.6377C21.8655 4.01581 21.9374 4.40888 21.9697 4.80371C22.0003 5.17785 22 5.6322 22 6.1582V17.8418C22 18.3679 22.0003 18.8223 21.9697 19.1963C21.9374 19.5911 21.8655 19.9843 21.6729 20.3623C21.385 20.927 20.9251 21.3856 20.3613 21.6729C19.9833 21.8655 19.5902 21.9374 19.1953 21.9697C18.8214 22.0003 18.3676 22 17.8418 22H6.1582C5.6322 22 5.17785 22.0003 4.80371 21.9697C4.40888 21.9374 4.01581 21.8655 3.6377 21.6729C3.07289 21.385 2.61445 20.926 2.32715 20.3623C2.13441 19.984 2.06259 19.5906 2.03028 19.1953C1.99967 18.8208 1.99998 18.366 2 17.8389V6.16211C1.99998 5.63494 1.99967 5.17935 2.03028 4.80469C2.06258 4.40941 2.13437 4.01605 2.32715 3.6377C2.61475 3.07333 3.07333 2.61475 3.6377 2.32715C4.01605 2.13437 4.40941 2.06258 4.80469 2.03028C5.17935 1.99967 5.63494 1.99998 6.16211 2H17.8389ZM6.2002 4C5.62365 4 5.25123 4.00126 4.96778 4.02442C4.69597 4.04662 4.59528 4.08422 4.5459 4.10938C4.35779 4.20524 4.20524 4.35779 4.10938 4.5459C4.08422 4.59528 4.04662 4.69597 4.02442 4.96778C4.00126 5.25123 4 5.62365 4 6.2002V17.7998C4 18.3764 4.00127 18.749 4.02442 19.0322C4.04661 19.3037 4.08416 19.4046 4.10938 19.4541C4.20555 19.6427 4.35841 19.7961 4.5459 19.8916C4.5952 19.9167 4.69594 19.9544 4.9668 19.9766C5.24974 19.9997 5.62182 20 6.19727 20H17.8027C18.3779 20 18.7496 19.9996 19.0322 19.9766C19.3025 19.9545 19.4037 19.9167 19.4531 19.8916C19.6418 19.7955 19.796 19.6417 19.8916 19.4541C19.9167 19.4048 19.9544 19.3042 19.9766 19.0332C19.9997 18.7505 20 18.3791 20 17.8037V6.19727C20 5.62182 19.9997 5.24974 19.9766 4.9668C19.9544 4.69594 19.9167 4.5952 19.8916 4.5459C19.7963 4.35882 19.6424 4.2058 19.4531 4.10938C19.4036 4.08414 19.3032 4.04561 19.0322 4.02344C18.7491 4.00029 18.3764 4 17.7998 4H6.2002Z" fill="#545454"/>
</svg>
