<svg width="24" height="24" viewBox="0 0 24 24" fill="none" xmlns="http://www.w3.org/2000/svg">
<path fill-rule="evenodd" clip-rule="evenodd" d="M4.00009 11C4.00009 6.58172 7.58181 3 12.0001 3C16.4184 3 20.0001 6.58172 20.0001 11C20.0001 11.0568 19.9954 11.1124 19.9863 11.1666C20.9807 11.5124 21.7329 12.3614 21.9423 13.4143C22.0007 13.7077 22.0004 14.0363 22.0001 14.4185C22.0001 14.4454 22.0001 14.4726 22.0001 14.5V16.5C22.0001 16.5274 22.0001 16.5546 22.0001 16.5815C22.0004 16.9637 22.0007 17.2919 21.9423 17.5853C21.7056 18.775 20.7758 19.7059 19.5854 19.9427C19.2925 20.001 18.9647 20.0007 18.584 20.0004C18.5563 20.0004 18.5283 20.0003 18.5001 20.0003C18.4718 20.0003 18.4439 20.0004 18.4162 20.0004C18.0355 20.0007 17.7077 20.001 17.4149 19.9427C16.2246 19.7059 15.2944 18.7751 15.0577 17.5853C14.9995 17.2924 14.9997 16.9646 15 16.5839C15.0001 16.5562 15.0001 16.5282 15.0001 16.5V14.5C15.0001 14.4718 15.0001 14.4438 15 14.4161C14.9997 14.0354 14.9995 13.7071 15.0577 13.4143C15.2945 12.2239 16.2251 11.2943 17.4149 11.0576C17.5953 11.0218 17.789 11.0081 18.0001 11.0029C18.0001 11.002 18.0001 11.001 18.0001 11C18.0001 7.68629 15.3138 5 12.0001 5C8.68638 5 6.00009 7.68629 6.00009 11C6.00009 11.001 6.00009 11.002 6.00008 11.0029C6.21122 11.0081 6.40489 11.0218 6.58531 11.0576C7.77514 11.2943 8.70553 12.224 8.9423 13.4143C9.00066 13.7077 9.00041 14.0363 9.00013 14.4185C9.00011 14.4454 9.00009 14.4726 9.00009 14.5V16.5C9.00009 16.5274 9.00011 16.5546 9.00013 16.5815C9.00041 16.9637 9.00066 17.2919 8.9423 17.5853C8.70564 18.775 7.77571 19.7059 6.58531 19.9427C6.29246 20.001 5.9647 20.0007 5.58401 20.0004C5.55633 20.0004 5.52837 20.0003 5.50013 20.0003C5.47189 20.0003 5.44393 20.0004 5.41626 20.0004C5.03556 20.0007 4.70772 20.001 4.41486 19.9427C3.22457 19.7059 2.29441 18.7751 2.05773 17.5853C1.99948 17.2924 1.99974 16.9646 2.00004 16.5839C2.00007 16.5562 2.00009 16.5282 2.00009 16.5V14.5C2.00009 14.4717 2.00007 14.4438 2.00004 14.4161C1.99974 14.0354 1.99948 13.7071 2.05773 13.4143C2.26719 12.3613 3.01955 11.5124 4.01391 11.1666C4.00482 11.1124 4.00009 11.0568 4.00009 11ZM5.50013 13C4.98755 13 4.87729 13.0048 4.80504 13.0192C4.408 13.0982 4.09814 13.4081 4.0193 13.8045C4.00493 13.8767 4.00009 13.9874 4.00009 14.5V16.5C4.00009 17.0126 4.00493 17.1228 4.0193 17.1951C4.09825 17.592 4.40857 17.9023 4.80504 17.9811C4.87729 17.9955 4.98755 18.0003 5.50013 18.0003C6.0127 18.0003 6.12288 17.9955 6.19513 17.9811C6.59151 17.9023 6.90176 17.5921 6.98073 17.1951C6.99512 17.1227 7.00009 17.012 7.00009 16.5V14.5C7.00009 13.9879 6.99512 13.8768 6.98073 13.8045C6.90187 13.408 6.59207 13.0982 6.19513 13.0192C6.12288 13.0048 6.01271 13 5.50013 13ZM18.5001 13C17.9875 13 17.8773 13.0048 17.805 13.0192C17.408 13.0982 17.0981 13.4081 17.0193 13.8045C17.0049 13.8767 17.0001 13.9874 17.0001 14.5V16.5C17.0001 17.0126 17.0049 17.1228 17.0193 17.1951C17.0983 17.592 17.4086 17.9023 17.805 17.9811C17.8773 17.9955 17.9875 18.0003 18.5001 18.0003C19.0127 18.0003 19.1229 17.9955 19.1952 17.9811C19.5915 17.9023 19.9018 17.5921 19.9807 17.1951C19.9951 17.1227 20.0001 17.012 20.0001 16.5V14.5C20.0001 13.9879 19.9951 13.8768 19.9807 13.8045C19.9019 13.408 19.5921 13.0982 19.1952 13.0192C19.1229 13.0048 19.0127 13 18.5001 13Z" fill="#545454"/>
</svg>
