<svg width="24" height="24" viewBox="0 0 24 24" fill="none" xmlns="http://www.w3.org/2000/svg">
<path fill-rule="evenodd" clip-rule="evenodd" d="M4 5C4 4.44772 4.44772 4 5 4H12.1716C12.9672 4 13.7303 4.31607 14.2929 4.87868L21.2929 11.8787C22.4645 13.0503 22.4645 14.9497 21.2929 16.1213L16.1213 21.2929C14.9497 22.4645 13.0503 22.4645 11.8787 21.2929L4.87868 14.2929C4.31607 13.7303 4 12.9672 4 12.1716V5ZM6 6V12.1716C6 12.4368 6.10536 12.6911 6.29289 12.8787L13.2929 19.8787C13.6834 20.2692 14.3166 20.2692 14.7071 19.8787L19.8787 14.7071C20.2692 14.3166 20.2692 13.6834 19.8787 13.2929L12.8787 6.29289C12.6911 6.10536 12.4368 6 12.1716 6H6Z" fill="#545454"/>
<path fill-rule="evenodd" clip-rule="evenodd" d="M8.5 10C8.5 9.17157 9.17157 8.5 10 8.5H10.01C10.8384 8.5 11.51 9.17157 11.51 10V10.01C11.51 10.8384 10.8384 11.51 10.01 11.51H10C9.17157 11.51 8.5 10.8384 8.5 10.01V10Z" fill="#545454"/>
</svg>
