<svg width="24" height="24" viewBox="0 0 24 24" fill="none" xmlns="http://www.w3.org/2000/svg">
<path fill-rule="evenodd" clip-rule="evenodd" d="M16.373 5.05942C16.2481 5.01444 16.0829 5.00024 15.2536 5.00024H8.74609C7.91685 5.00024 7.7519 5.01443 7.62701 5.05942C7.48186 5.11171 7.35102 5.19674 7.24418 5.30826C7.15228 5.40417 7.0721 5.54933 6.73546 6.30677L5.53836 9.00024H18.461L17.2633 6.30538C16.927 5.5486 16.8471 5.40395 16.7555 5.30826C16.6483 5.1964 16.5177 5.11155 16.373 5.05942ZM19 11.0002V15.0003L5 15.0002V11.0002H19ZM3 11.0002C2.44772 11.0002 2 10.5525 2 10.0002C2 9.44795 2.44772 9.00024 3 9.00024H3.34972C3.35365 8.9914 3.35761 8.98252 3.36158 8.97357L4.90784 5.49449C4.92551 5.45472 4.94298 5.41527 4.96031 5.37614C5.21239 4.80691 5.43384 4.30683 5.80002 3.92464C6.12033 3.59032 6.51341 3.33477 6.94916 3.17779C7.44684 2.99851 7.99358 2.99926 8.61529 3.00012C8.65853 3.00018 8.70213 3.00024 8.74609 3.00024H15.2536C15.2975 3.00024 15.3411 3.00018 15.3844 3.00012C16.0061 2.99926 16.5532 2.99851 17.0509 3.17779C17.4871 3.33493 17.8796 3.59065 18.1996 3.92464C18.5654 4.30644 18.7866 4.80599 19.038 5.37371C19.0555 5.41318 19.0731 5.45299 19.0909 5.4931L20.6434 8.98621C20.6455 8.9909 20.6476 8.99557 20.6497 9.00024H21C21.5523 9.00024 22 9.44795 22 10.0002C22 10.5525 21.5523 11.0002 21 11.0002V17.0001C21 18.6569 19.6569 20.0002 18 20.0002C16.3432 20.0002 15 18.6571 15 17.0003L9 17.0002C9 18.6571 7.65685 20.0002 6 20.0002C4.34315 20.0002 3 18.6571 3 17.0002V11.0002ZM7 17.0002H5C5 17.5525 5.44772 18.0002 6 18.0002C6.55228 18.0002 7 17.5525 7 17.0002ZM17 17.0003C17 17.5526 17.4477 18.0002 18 18.0002C18.5521 18.0002 18.9999 17.5526 19 17.0003L17 17.0003Z" fill="#545454"/>
</svg>
