<svg width="24" height="24" viewBox="0 0 24 24" fill="none" xmlns="http://www.w3.org/2000/svg">
<path d="M13.0002 17C13.0002 17.5523 12.5525 18 12.0002 18C11.4479 18 11.0002 17.5523 11.0002 17L11.0002 6.41406L7.70727 9.70703C7.31674 10.0976 6.68373 10.0976 6.2932 9.70703C5.90268 9.31651 5.90268 8.68349 6.2932 8.29297L11.2932 3.29297C11.6837 2.90244 12.3167 2.90244 12.7073 3.29297L17.7073 8.29297L17.7756 8.36914C18.096 8.76191 18.0734 9.34092 17.7073 9.70703C17.3412 10.0731 16.7621 10.0957 16.3694 9.77539L16.2932 9.70703L13.0002 6.41406L13.0002 17Z" fill="#545454"/>
<path d="M18 19C18.5523 19 19 19.4477 19 20C19 20.5523 18.5523 21 18 21H6C5.44772 21 5 20.5523 5 20C5 19.4477 5.44772 19 6 19H18Z" fill="#545454"/>
</svg>
