<svg width="24" height="24" viewBox="0 0 24 24" fill="none" xmlns="http://www.w3.org/2000/svg">
<path d="M13 5C13 4.44772 12.5523 4 12 4C11.4477 4 11 4.44772 11 5V13L8.6 11.2C8.15817 10.8686 7.53137 10.9582 7.2 11.4C6.86863 11.8418 6.95817 12.4686 7.4 12.8L12 16.25L16.6 12.8C17.0418 12.4686 17.1314 11.8418 16.8 11.4C16.4686 10.9582 15.8418 10.8686 15.4 11.2L13 13V5Z" fill="#545454"/>
<path d="M5 14C5 13.4477 4.55228 13 4 13C3.44772 13 3 13.4477 3 14V18C3 19.1046 3.89543 20 5 20H19C20.1046 20 21 19.1046 21 18V14C21 13.4477 20.5523 13 20 13C19.4477 13 19 13.4477 19 14V18H5V14Z" fill="#545454"/>
</svg>
