<svg width="24" height="24" viewBox="0 0 24 24" fill="none" xmlns="http://www.w3.org/2000/svg">
<path d="M11 2.30082C11.5522 2.30082 11.9999 2.7486 12 3.30082C12 3.85311 11.5523 4.30082 11 4.30082H7C4.7909 4.30082 3.00007 6.09174 3 8.30082V16.3008C3 18.51 4.79086 20.3008 7 20.3008H15C17.2091 20.3008 19 18.51 19 16.3008V12.3008C19.0001 11.7486 19.4478 11.3008 20 11.3008C20.5522 11.3008 20.9999 11.7486 21 12.3008V16.3008C21 19.6145 18.3137 22.3008 15 22.3008H7C3.68629 22.3008 1 19.6145 1 16.3008V8.30082C1.00007 4.98717 3.68633 2.30082 7 2.30082H11ZM15.4648 1.87992C16.6355 0.707507 18.5345 0.706529 19.7061 1.87797L21.1953 3.36723C22.3568 4.52876 22.3691 6.40957 21.2227 7.58598L14.1621 14.8291C13.4095 15.6013 12.3776 16.0372 11.2998 16.0372H9.60254C8.1812 16.037 7.04569 14.8519 7.10547 13.4307L7.17969 11.669C7.22188 10.6674 7.63865 9.71793 8.34668 9.00883L15.4648 1.87992ZM9.76074 10.4229C9.4068 10.7774 9.19891 11.2523 9.17773 11.753L9.10352 13.5147C9.09156 13.7989 9.31835 14.0361 9.60254 14.0362H11.2998C11.8387 14.0362 12.3552 13.8187 12.7314 13.4327L17.5908 8.44438L14.6611 5.51469L9.76074 10.4229ZM18.293 3.29399C17.9024 2.90346 17.2691 2.90317 16.8789 3.29399L16.0742 4.09965L18.9873 7.01274L19.791 6.18852C20.173 5.79646 20.1691 5.17041 19.7822 4.78324L18.293 3.29399Z" fill="#545454"/>
</svg>
