<svg width="24" height="24" viewBox="0 0 24 24" fill="none" xmlns="http://www.w3.org/2000/svg">
<path fill-rule="evenodd" clip-rule="evenodd" d="M13.261 1.03475C13.6971 1.15265 14 1.54832 14 2.00009V9.00009H18C18.3581 9.00009 18.6888 9.19154 18.8671 9.50203C19.0455 9.81252 19.0442 10.1947 18.8638 10.504L11.8638 22.504C11.6361 22.8942 11.1751 23.0833 10.739 22.9654C10.3029 22.8475 10 22.4519 10 22.0001V15.0001H6C5.64193 15.0001 5.3112 14.8086 5.13286 14.4982C4.95452 14.1877 4.9558 13.8055 5.13622 13.4962L12.1362 1.49622C12.3639 1.10599 12.8249 0.916842 13.261 1.03475ZM7.74104 13.0001H11C11.5523 13.0001 12 13.4478 12 14.0001V18.3012L16.259 11.0001H13C12.4477 11.0001 12 10.5524 12 10.0001V5.69901L7.74104 13.0001Z" fill="#545454"/>
</svg>
