<svg width="24" height="24" viewBox="0 0 24 24" fill="none" xmlns="http://www.w3.org/2000/svg">
<path fill-rule="evenodd" clip-rule="evenodd" d="M6.16168 2H17.8388C18.3659 1.99998 18.8205 1.99997 19.1949 2.03058C19.5902 2.06289 19.9831 2.13424 20.3614 2.32698C20.9248 2.61405 21.3851 3.07224 21.6732 3.63781C21.8659 4.016 21.9372 4.40906 21.9695 4.80397C22 5.17815 22 5.6323 22 6.15839V17.8421C22 18.3682 22 18.8222 21.9695 19.1962C21.9372 19.591 21.8659 19.9838 21.6732 20.3619C21.3854 20.9269 20.9254 21.3859 20.3614 21.6732C19.9833 21.8659 19.5905 21.9372 19.1957 21.9695C18.8217 22 18.3677 22 17.8416 22H6.15839C5.6323 22 5.17815 22 4.80397 21.9695C4.40906 21.9372 4.016 21.8659 3.63781 21.6732C3.07276 21.3853 2.61431 20.9258 2.32698 20.3619C2.13421 19.9835 2.06288 19.5904 2.03057 19.1951C1.99997 18.8206 1.99998 18.3659 2 17.8388V6.16168C1.99998 5.63451 1.99997 5.17965 2.03057 4.80499C2.06286 4.40962 2.13416 4.01625 2.32698 3.63781C2.6146 3.07332 3.07332 2.6146 3.63781 2.32698C4.01625 2.13416 4.40962 2.06286 4.80499 2.03057C5.17965 1.99997 5.63451 1.99998 6.16168 2ZM4.9678 4.02393C4.69595 4.04614 4.59517 4.08383 4.54579 4.109C4.35763 4.20487 4.20487 4.35763 4.109 4.54579C4.08383 4.59517 4.04614 4.69595 4.02393 4.9678C4.00078 5.25126 4 5.62365 4 6.2002V17.8002C4 18.3768 4.00078 18.7489 4.02393 19.0322C4.04612 19.3037 4.08378 19.4044 4.109 19.4539C4.20516 19.6426 4.35819 19.7956 4.54579 19.8912C4.595 19.9163 4.69554 19.9539 4.96686 19.9761C5.2498 19.9992 5.62146 20 6.19691 20H17.8031C18.3786 20 18.75 19.9992 19.0327 19.9761C19.3036 19.954 19.4041 19.9164 19.4534 19.8912C19.6421 19.7951 19.7956 19.6415 19.8912 19.4539C19.9164 19.4046 19.954 19.3041 19.9761 19.0332C19.9992 18.7505 20 18.379 20 17.8036V6.19691C20 5.62146 19.9992 5.2498 19.9761 4.96686C19.9539 4.69554 19.9163 4.59501 19.8912 4.54579C19.7959 4.35871 19.6427 4.20542 19.4534 4.109C19.4039 4.08375 19.3032 4.04611 19.0319 4.02393C18.7488 4.00078 18.3768 4 17.8002 4H6.2002C5.62365 4 5.25126 4.00078 4.9678 4.02393ZM11.3736 6.04943C12.1021 5.93384 12.8482 6.02186 13.5299 6.30406C14.2118 6.58631 14.802 7.05179 15.2357 7.6484C15.6696 8.24547 15.9293 8.95046 15.9873 9.68557C16.0453 10.4211 15.8986 11.1584 15.5637 11.8157C15.2289 12.473 14.7193 13.0247 14.0901 13.4102C13.7501 13.6186 13.3825 13.774 13 13.8728V14.0002C13 14.5525 12.5523 15.0002 12 15.0002C11.4477 15.0002 11 14.5525 11 14.0002V12.9998C11 12.4475 11.4477 11.9998 12 11.9998C12.3689 11.9998 12.7306 11.8978 13.0451 11.705C13.3595 11.5123 13.6141 11.2367 13.7816 10.9079C13.9491 10.5791 14.0224 10.2104 13.9935 9.84275C13.9644 9.47466 13.8345 9.12235 13.6178 8.82426C13.4009 8.52571 13.1056 8.293 12.765 8.15199C12.4242 8.01093 12.0514 7.96691 11.687 8.02473C11.3225 8.08256 10.9807 8.24016 10.7005 8.47969C10.4199 8.71944 10.2115 9.03158 10.0977 9.3823C9.92717 9.90761 9.36312 10.1953 8.83781 10.0248C8.31249 9.8543 8.02484 9.29025 8.19532 8.76494C8.4231 8.06307 8.84038 7.43849 9.4011 6.95928C9.96208 6.47985 10.6451 6.16501 11.3736 6.04943ZM10.9502 17C10.9502 16.4477 11.3979 16 11.9502 16H12.0498C12.6021 16 13.0498 16.4477 13.0498 17V17.1C13.0498 17.6515 12.6033 18.0989 12.0518 18.1L11.9522 18.1002C11.6866 18.1007 11.4317 17.9956 11.2438 17.808C11.0558 17.6204 10.9502 17.3658 10.9502 17.1002V17Z" fill="#545454"/>
</svg>
