<svg width="24" height="24" viewBox="0 0 24 24" fill="none" xmlns="http://www.w3.org/2000/svg">
<path fill-rule="evenodd" clip-rule="evenodd" d="M3 3C3.55228 3 4 3.44772 4 4V18C4 18.5523 4.44772 19 5 19H19C19.5523 19 20 18.5523 20 18V9H17C16.4477 9 16 8.55228 16 8C16 7.44772 16.4477 7 17 7H21C21.5523 7 22 7.44772 22 8V18C22 19.6569 20.6569 21 19 21H5C3.34315 21 2 19.6569 2 18V4C2 3.44772 2.44772 3 3 3Z" fill="#545454"/>
<path fill-rule="evenodd" clip-rule="evenodd" d="M2 4C2 3.44772 2.44772 3 3 3H17C17.5523 3 18 3.44772 18 4V18C18 18.5523 18.4477 19 19 19C19.5523 19 20 19.4477 20 20C20 20.5523 19.5523 21 19 21C17.3431 21 16 19.6569 16 18V5H3C2.44772 5 2 4.55228 2 4Z" fill="#545454"/>
<path fill-rule="evenodd" clip-rule="evenodd" d="M6 8C6 7.44772 6.44772 7 7 7H13C13.5523 7 14 7.44772 14 8C14 8.55228 13.5523 9 13 9H7C6.44772 9 6 8.55228 6 8Z" fill="#545454"/>
<path fill-rule="evenodd" clip-rule="evenodd" d="M8 12C8 11.4477 8.44772 11 9 11H13C13.5523 11 14 11.4477 14 12C14 12.5523 13.5523 13 13 13H9C8.44772 13 8 12.5523 8 12Z" fill="#545454"/>
</svg>
