<svg width="24" height="24" viewBox="0 0 24 24" fill="none" xmlns="http://www.w3.org/2000/svg">
<path fill-rule="evenodd" clip-rule="evenodd" d="M20.1819 11.6546C20.8213 11.6546 21.1239 10.8661 20.6486 10.4383L12.669 3.25671C12.2887 2.91443 11.7114 2.91443 11.3311 3.25671L3.35151 10.4383C2.87622 10.8661 3.17881 11.6546 3.81825 11.6546L4.63648 19.7551C4.68807 20.2659 5.11805 20.6546 5.63141 20.6546H11.0001L11.0001 15.6546C11.0001 15.1023 11.4478 14.6546 12.0001 14.6546C12.5523 14.6546 13.0001 15.1023 13.0001 15.6546L13.0001 20.6546H18.3687C18.8821 20.6546 19.3121 20.2659 19.3636 19.7551L20.1819 11.6546ZM15.0001 18.6546H17.4646L18.2416 10.9627L12.0001 5.34536L5.75853 10.9627L6.53549 18.6546H9.00006V15.6546C9.00006 13.9978 10.3432 12.6546 12.0001 12.6546C13.6569 12.6546 15.0001 13.9978 15.0001 15.6546V18.6546Z" fill="#545454"/>
</svg>
