<svg width="24" height="24" viewBox="0 0 24 24" fill="none" xmlns="http://www.w3.org/2000/svg">
<path fill-rule="evenodd" clip-rule="evenodd" d="M16.7927 5.20696C14.1457 2.55992 9.854 2.55992 7.20696 5.20696C4.55992 7.854 4.55992 12.1457 7.20696 14.7927L11.9999 19.5856L16.7927 14.7927C19.4398 12.1457 19.4398 7.854 16.7927 5.20696ZM5.79275 3.79275C9.22083 0.364657 14.7789 0.364657 18.207 3.79275C21.635 7.22084 21.635 12.7789 18.207 16.207L12.707 21.707C12.5194 21.8945 12.2651 21.9999 11.9999 21.9999C11.7346 21.9999 11.4803 21.8945 11.2927 21.707L5.79275 16.207C2.36466 12.7789 2.36466 7.22084 5.79275 3.79275Z" fill="#545454"/>
<path d="M13.9999 8.99988C13.9999 10.1044 13.1044 10.9999 11.9999 10.9999C10.8953 10.9999 9.99988 10.1044 9.99988 8.99988C9.99988 7.89531 10.8953 6.99988 11.9999 6.99988C13.1044 6.99988 13.9999 7.89531 13.9999 8.99988Z" fill="#545454"/>
</svg>
