<svg width="24" height="24" viewBox="0 0 24 24" fill="none" xmlns="http://www.w3.org/2000/svg">
<path fill-rule="evenodd" clip-rule="evenodd" d="M8 4C8 3.44772 8.44772 3 9 3H19C19.5523 3 20 3.44772 20 4V18C20 19.6569 18.6569 21 17 21H9C8.44772 21 8 20.5523 8 20C8 19.4477 8.44772 19 9 19H17C17.5523 19 18 18.5523 18 18V5H9C8.44772 5 8 4.55228 8 4Z" fill="#545454"/>
<path fill-rule="evenodd" clip-rule="evenodd" d="M11.2929 8.29289C11.6834 7.90237 12.3166 7.90237 12.7071 8.29289L15.7071 11.2929C16.0976 11.6834 16.0976 12.3166 15.7071 12.7071L12.7071 15.7071C12.3166 16.0976 11.6834 16.0976 11.2929 15.7071C10.9024 15.3166 10.9024 14.6834 11.2929 14.2929L12.5858 13H5C4.44772 13 4 12.5523 4 12C4 11.4477 4.44772 11 5 11H12.5858L11.2929 9.70711C10.9024 9.31658 10.9024 8.68342 11.2929 8.29289Z" fill="#545454"/>
</svg>
