<svg width="24" height="24" viewBox="0 0 24 24" fill="none" xmlns="http://www.w3.org/2000/svg">
<path d="M20 12C20 7.58172 16.4183 4 12 4C7.58172 4 4 7.58172 4 12C4 16.4183 7.58172 20 12 20C16.4183 20 20 16.4183 20 12ZM15.7314 7.03711C16.0752 6.94114 16.4492 7.03509 16.707 7.29297C16.9649 7.55085 17.0589 7.92484 16.9629 8.26855L16.9102 8.41406L14.4102 13.9141C14.3226 14.1065 14.1766 14.2654 13.9941 14.3691L13.9141 14.4102L8.41406 16.9102C8.03458 17.0826 7.58772 17.0018 7.29297 16.707C6.99822 16.4123 6.91735 15.9654 7.08984 15.5859L9.58984 10.0859L9.63086 10.0059C9.73461 9.82337 9.89348 9.6774 10.0859 9.58984L15.5859 7.08984L15.7314 7.03711ZM11.2549 11.2549L10.0137 13.9863L12.7441 12.7441L13.9863 10.0137L11.2549 11.2549ZM22 12C22 17.5228 17.5228 22 12 22C6.47715 22 2 17.5228 2 12C2 6.47715 6.47715 2 12 2C17.5228 2 22 6.47715 22 12Z" fill="#545454"/>
</svg>
