<svg width="24" height="24" viewBox="0 0 24 24" fill="none" xmlns="http://www.w3.org/2000/svg">
<path fill-rule="evenodd" clip-rule="evenodd" d="M1 8C1 5.23858 3.23858 3 6 3H18C20.7614 3 23 5.23858 23 8V9.22305C23 9.91373 22.5194 10.4059 22.0107 10.5813C21.4212 10.7846 21 11.3444 21 12C21 12.6556 21.4212 13.2154 22.0107 13.4187C22.5194 13.5941 23 14.0863 23 14.777V16C23 18.7614 20.7614 21 18 21H6C3.23858 21 1 18.7614 1 16V14.777C1 14.0863 1.48057 13.5941 1.9893 13.4187C2.57881 13.2154 3 12.6556 3 12C3 11.3444 2.57881 10.7846 1.9893 10.5813C1.48057 10.4059 1 9.91373 1 9.22305V8ZM6 5C4.34315 5 3 6.34315 3 8V8.83712C4.18151 9.39842 5 10.6026 5 12C5 13.3974 4.18151 14.6016 3 15.1629V16C3 17.6569 4.34315 19 6 19H18C19.6569 19 21 17.6569 21 16V15.1629C19.8185 14.6016 19 13.3974 19 12C19 10.6026 19.8185 9.39842 21 8.83712V8C21 6.34315 19.6569 5 18 5H6Z" fill="#545454"/>
<path fill-rule="evenodd" clip-rule="evenodd" d="M10.9985 10.6215L8.50423 9.81269L7.8862 11.7148L10.3795 12.5265L8.8395 14.6488L10.4575 15.8243L12 13.7039L13.5425 15.8243L15.1605 14.6488L13.6205 12.5265L16.1138 11.7148L15.4958 9.81269L13.0015 10.6215L13 7.99941H11L10.9985 10.6215Z" fill="#545454"/>
</svg>
