<svg width="24" height="24" viewBox="0 0 24 24" fill="none" xmlns="http://www.w3.org/2000/svg">
<path fill-rule="evenodd" clip-rule="evenodd" d="M16.3918 5C18.1416 5 19.2686 6.37901 18.929 7.71281C17.5797 13.0131 13.4049 17.1879 8.10463 18.5372C6.77083 18.8768 5.39182 17.7497 5.39182 16V15C5.39182 14.999 5.39172 14.9998 5.39179 14.9997C5.39222 14.9987 5.39481 14.9931 5.40265 14.9851C5.42007 14.9671 5.45081 14.9497 5.48888 14.9459C6.28228 14.8673 7.05131 14.7042 7.78663 14.4659L8.85837 15.5376C9.15823 15.8375 9.61462 15.9156 9.99715 15.7325C12.6741 14.4515 14.8433 12.2822 16.1244 9.60534C16.3074 9.22281 16.2293 8.76642 15.9294 8.46656L14.8577 7.39482C15.0961 6.6595 15.2591 5.89046 15.3377 5.09706C15.3415 5.05899 15.3589 5.02825 15.3769 5.01083C15.3849 5.00299 15.3905 5.0004 15.3915 4.99997C15.3917 4.99991 15.3908 5 15.3918 5H16.3918ZM20.8672 8.20623C21.6177 5.25833 19.0604 3 16.3918 3H15.3918C14.265 3 13.4465 3.90113 13.3475 4.89977C13.2646 5.73553 13.0676 6.53697 12.7723 7.2888C12.6269 7.65902 12.7147 8.08023 12.9959 8.36149L13.998 9.36358C13.0041 11.1396 11.5314 12.6123 9.75539 13.6062L8.7533 12.6041C8.47204 12.3229 8.05083 12.235 7.68061 12.3805C6.92879 12.6758 6.12735 12.8728 5.29159 12.9557C4.29295 13.0547 3.39182 13.8731 3.39182 15V16C3.39182 18.6685 5.65015 21.2259 8.59805 20.4754C14.6081 18.9453 19.3372 14.2163 20.8672 8.20623Z" fill="#545454"/>
</svg>
