<svg width="24" height="24" viewBox="0 0 24 24" fill="none" xmlns="http://www.w3.org/2000/svg">
<path fill-rule="evenodd" clip-rule="evenodd" d="M2 7C2 6.44772 2.44772 6 3 6H21C21.5523 6 22 6.44772 22 7V19C22 20.6569 20.6569 22 19 22H5C3.34315 22 2 20.6569 2 19V7ZM4 8V19C4 19.5523 4.44772 20 5 20H19C19.5523 20 20 19.5523 20 19V8H4Z" fill="#545454"/>
<path fill-rule="evenodd" clip-rule="evenodd" d="M12 12C10.8954 12 10 12.8954 10 14C10 15.1046 10.8954 16 12 16C13.1046 16 14 15.1046 14 14C14 12.8954 13.1046 12 12 12ZM8 14C8 11.7909 9.79086 10 12 10C14.2091 10 16 11.7909 16 14C16 16.2091 14.2091 18 12 18C9.79086 18 8 16.2091 8 14Z" fill="#545454"/>
<path fill-rule="evenodd" clip-rule="evenodd" d="M20 4C20 4.55228 19.5523 5 19 5H17C16.4477 5 16 4.55228 16 4C16 3.44772 16.4477 3 17 3L19 3C19.5523 3 20 3.44772 20 4Z" fill="#545454"/>
</svg>
