<svg width="24" height="24" viewBox="0 0 24 24" fill="none" xmlns="http://www.w3.org/2000/svg">
<path fill-rule="evenodd" clip-rule="evenodd" d="M22 12C22 17.5228 17.5228 22 12 22C6.47715 22 2 17.5228 2 12C2 6.47715 6.47715 2 12 2C17.5228 2 22 6.47715 22 12ZM14.9022 19.4573C14.0024 19.8077 13.0237 20 12 20C10.9763 20 9.99755 19.8077 9.09783 19.4573L9.41421 17.2426C9.59804 15.9558 10.7001 15 12 15C13.2999 15 14.402 15.9558 14.5858 17.2426L14.9022 19.4573ZM16.7743 18.4198L16.5657 16.9598C16.338 15.3658 15.3123 14.0594 13.9279 13.4217C14.8751 12.7953 15.5 11.7206 15.5 10.5C15.5 8.567 13.933 7 12 7C10.067 7 8.5 8.567 8.5 10.5C8.5 11.7206 9.12485 12.7953 10.0721 13.4217C8.68771 14.0594 7.66203 15.3658 7.43432 16.9598L7.22574 18.4198C5.26799 16.9615 4 14.6288 4 12C4 7.58172 7.58172 4 12 4C16.4183 4 20 7.58172 20 12C20 14.6288 18.732 16.9615 16.7743 18.4198ZM12 12C12.8284 12 13.5 11.3284 13.5 10.5C13.5 9.67157 12.8284 9 12 9C11.1716 9 10.5 9.67157 10.5 10.5C10.5 11.3284 11.1716 12 12 12Z" fill="#545454"/>
</svg>
