<svg width="24" height="24" viewBox="0 0 24 24" fill="none" xmlns="http://www.w3.org/2000/svg">
<path fill-rule="evenodd" clip-rule="evenodd" d="M12 4C8.13401 4 5 7.13401 5 11C5 14.866 8.13401 18 12 18C13.9333 18 15.6819 17.2176 16.9497 15.9497C18.2176 14.6819 19 12.9333 19 11C19 7.13401 15.866 4 12 4ZM3 11C3 6.02944 7.02944 2 12 2C16.9706 2 21 6.02944 21 11C21 13.1246 20.2628 15.0784 19.0319 16.6176L22.7071 20.2929C23.0976 20.6834 23.0976 21.3166 22.7071 21.7071C22.3166 22.0976 21.6834 22.0976 21.2929 21.7071L17.6176 18.0319C16.0784 19.2628 14.1246 20 12 20C7.02944 20 3 15.9706 3 11Z" fill="#545454"/>
</svg>
