<svg width="24" height="24" viewBox="0 0 24 24" fill="none" xmlns="http://www.w3.org/2000/svg">
<path fill-rule="evenodd" clip-rule="evenodd" d="M3.01931 6.33631C2.75993 4.00186 5.16251 2.2883 7.28522 3.2938L19.2296 8.95167C21.5173 10.0353 21.5173 13.2905 19.2296 14.3741L7.28522 20.032C5.16251 21.0375 2.75993 19.3239 3.01931 16.9895L3.61115 11.6629L3.01931 6.33631ZM5.51235 12.6629L5.00708 17.2103C4.92062 17.9885 5.72148 18.5597 6.42905 18.2245L18.3734 12.5666C19.136 12.2054 19.136 11.1204 18.3734 10.7591L6.42905 5.10127C5.72148 4.76611 4.92062 5.33729 5.00708 6.11544L5.51235 10.6629H11.6173C12.1696 10.6629 12.6173 11.1106 12.6173 11.6629C12.6173 12.2152 12.1696 12.6629 11.6173 12.6629H5.51235Z" fill="#545454"/>
</svg>
