<svg width="24" height="24" viewBox="0 0 24 24" fill="none" xmlns="http://www.w3.org/2000/svg">
<path fill-rule="evenodd" clip-rule="evenodd" d="M10.0278 12.4342C10.0278 13.5235 10.9109 14.4065 12.0001 14.4065C13.0894 14.4065 13.9724 13.5235 13.9724 12.4342C13.9724 11.3449 13.0894 10.4619 12.0001 10.4619C10.9109 10.4619 10.0278 11.3449 10.0278 12.4342ZM12.0001 8.46191C9.80629 8.46191 8.02783 10.2404 8.02783 12.4342C8.02783 14.628 9.80629 16.4065 12.0001 16.4065C14.194 16.4065 15.9724 14.628 15.9724 12.4342C15.9724 10.2404 14.194 8.46191 12.0001 8.46191Z" fill="#545454"/>
<path fill-rule="evenodd" clip-rule="evenodd" d="M6.23788 4.21829C5.32834 4.73803 5.01849 5.90745 5.53823 6.807C6.44778 8.37621 5.70815 9.65557 3.89905 9.65557C2.84958 9.65557 2 10.5151 2 11.5546V13.3137C2 14.3532 2.84958 15.2128 3.89905 15.2128C5.70815 15.2128 6.44778 16.4922 5.53823 18.0614C5.01849 18.9609 5.32834 20.1303 6.23788 20.6501L7.96702 21.6396C8.75662 22.1093 9.77611 21.8295 10.2459 21.0399L10.3558 20.85C11.2654 19.2808 12.7446 19.2808 13.6442 20.85L13.7541 21.0399C14.2239 21.8295 15.2434 22.1093 16.033 21.6396L17.7621 20.6501C18.6717 20.1303 18.9815 18.9709 18.4618 18.0614C17.5522 16.4922 18.2919 15.2128 20.101 15.2128C21.1504 15.2128 22 14.3532 22 13.3137V11.5546C22 10.5051 21.1404 9.65557 20.101 9.65557C18.2919 9.65557 17.5522 8.37621 18.4618 6.807C18.9815 5.90745 18.6717 4.73803 17.7621 4.21829L16.033 3.22879C15.2434 2.75902 14.2239 3.03888 13.7541 3.82849L13.6442 4.01839C12.7346 5.58761 11.2554 5.58761 10.3558 4.01839L10.2459 3.82849C9.77611 3.03888 8.75662 2.75902 7.96702 3.22879L6.23788 4.21829ZM8.68499 5.12224L7.32362 5.9013C7.95344 7.04109 8.22788 8.50491 7.47099 9.81834C6.71222 11.135 5.30308 11.6305 4 11.6546V13.2137C5.30308 13.2379 6.71221 13.7333 7.47099 15.05C8.22788 16.3635 7.95344 17.8273 7.32362 18.9671L8.68531 19.7463C9.36105 18.636 10.4921 17.6731 12.0037 17.6731C13.5148 17.6731 14.643 18.6348 15.315 19.7461L16.6764 18.9671C16.0466 17.8273 15.7721 16.3635 16.529 15.05C17.2878 13.7333 18.6969 13.2379 20 13.2137V11.6546C18.6969 11.6305 17.2878 11.135 16.529 9.81834C15.7721 8.50491 16.0466 7.04109 16.6764 5.90129L15.3147 5.12206C14.6389 6.23233 13.5079 7.1953 11.9963 7.1953C10.4852 7.1953 9.35698 6.23354 8.68499 5.12224ZM15.0104 4.9476L15.0169 4.95137C15.0147 4.95014 15.0126 4.94888 15.0104 4.9476ZM7.23016 5.95478L7.23027 5.95471L7.23016 5.95478ZM8.9896 4.9476C8.98745 4.94888 8.98529 4.95014 8.98314 4.95137L8.9896 4.9476Z" fill="#545454"/>
</svg>
