<svg width="24" height="24" viewBox="0 0 24 24" fill="none" xmlns="http://www.w3.org/2000/svg">
<path d="M9.08838 9C10.4691 9 11.5884 7.88071 11.5884 6.5C11.5884 5.11929 10.4691 4 9.08838 4C7.70767 4 6.58838 5.11929 6.58838 6.5L4.58838 6.5C4.58838 4.01472 6.6031 2 9.08838 2C11.5737 2 13.5884 4.01472 13.5884 6.5C13.5884 8.98528 11.5737 11 9.08838 11C6.6031 11 4.58838 8.98528 4.58838 6.5L6.58838 6.5C6.58838 7.88071 7.70767 9 9.08838 9Z" fill="#545454"/>
<path d="M3.00049 5.23535L5.11768 5.23535C5.66996 5.23535 6.11768 5.68307 6.11768 6.23535C6.11768 6.78764 5.66996 7.23535 5.11768 7.23535L3.00049 7.23535C2.4482 7.23535 2.00049 6.78764 2.00049 6.23535C2.00049 5.68307 2.4482 5.23535 3.00049 5.23535Z" fill="#545454"/>
<path d="M13.0586 5.23535L20.4707 5.23535C21.023 5.23535 21.4707 5.68307 21.4707 6.23535C21.4707 6.78764 21.023 7.23535 20.4707 7.23535L13.0586 7.23535C12.5065 7.23516 12.0586 6.78752 12.0586 6.23535C12.0586 5.68318 12.5065 5.23554 13.0586 5.23535Z" fill="#545454"/>
<path d="M14.3823 15C13.0016 15 11.8823 16.1193 11.8823 17.5C11.8823 18.8807 13.0016 20 14.3823 20C15.763 20 16.8823 18.8807 16.8823 17.5L18.8823 17.5C18.8823 19.9853 16.8676 22 14.3823 22C11.897 22 9.88232 19.9853 9.88232 17.5C9.88233 15.0147 11.897 13 14.3823 13C16.8676 13 18.8823 15.0147 18.8823 17.5L16.8823 17.5C16.8823 16.1193 15.763 15 14.3823 15Z" fill="#545454"/>
<path d="M20.4702 18.7646L18.353 18.7646C17.8007 18.7646 17.353 18.3169 17.353 17.7646C17.353 17.2124 17.8007 16.7646 18.353 16.7646L20.4702 16.7646C21.0225 16.7646 21.4702 17.2124 21.4702 17.7646C21.4702 18.3169 21.0225 18.7646 20.4702 18.7646Z" fill="#545454"/>
<path d="M10.4121 18.7646L3 18.7646C2.44772 18.7646 2 18.3169 2 17.7646C2 17.2124 2.44772 16.7646 3 16.7646L10.4121 16.7646C10.9642 16.7648 11.4121 17.2125 11.4121 17.7646C11.4121 18.3168 10.9642 18.7645 10.4121 18.7646Z" fill="#545454"/>
</svg>
