<svg width="24" height="24" viewBox="0 0 24 24" fill="none" xmlns="http://www.w3.org/2000/svg">
<path fill-rule="evenodd" clip-rule="evenodd" d="M6.35407 4C5.94516 4 5.57745 4.24895 5.42559 4.62861L4.53117 6.86467C4.35554 7.30373 4.51148 7.8058 4.90494 8.06811L5.4453 8.42835C5.46338 8.4404 5.4817 8.45178 5.50023 8.46248C5.82768 8.65165 6.23684 8.64026 6.5547 8.42835L8.4453 7.16795C8.7812 6.94402 9.2188 6.94402 9.5547 7.16795L11.4453 8.42835C11.7812 8.65228 12.2188 8.65228 12.5547 8.42835L14.4453 7.16795C14.7812 6.94402 15.2188 6.94402 15.5547 7.16795L17.4453 8.42835C17.7632 8.64025 18.1723 8.65165 18.4998 8.46248C18.5183 8.45177 18.5366 8.4404 18.5547 8.42835L19.0951 8.06811C19.4885 7.8058 19.6445 7.30373 19.4688 6.86467L18.5744 4.62861C18.4226 4.24895 18.0548 4 17.6459 4H6.35407ZM3.56864 3.88583C4.02423 2.74685 5.12735 2 6.35407 2H17.6459C18.8726 2 19.9758 2.74685 20.4314 3.88583L21.3258 6.12189C21.8527 7.43908 21.3849 8.94528 20.2045 9.73221L20 9.86852V20H21C21.5523 20 22 20.4477 22 21C22 21.5523 21.5523 22 21 22H3C2.44772 22 2 21.5523 2 21C2 20.4477 2.44772 20 3 20H4V9.86852L3.79554 9.73221C2.61514 8.94528 2.14733 7.43908 2.67421 6.12189L3.56864 3.88583ZM6 10.5963V20H18V10.5963C17.4199 10.5963 16.8398 10.4284 16.3359 10.0925L15 9.20185L13.6641 10.0925C12.6564 10.7642 11.3436 10.7642 10.3359 10.0925L9 9.20185L7.6641 10.0925C7.16022 10.4284 6.58013 10.5963 6 10.5963Z" fill="#545454"/>
<path fill-rule="evenodd" clip-rule="evenodd" d="M9 16C9 14.3431 10.3431 13 12 13C13.6569 13 15 14.3431 15 16V21H13V16C13 15.4477 12.5523 15 12 15C11.4477 15 11 15.4477 11 16V21H9V16Z" fill="#545454"/>
</svg>
