<svg width="24" height="24" viewBox="0 0 24 24" fill="none" xmlns="http://www.w3.org/2000/svg">
<path fill-rule="evenodd" clip-rule="evenodd" d="M12.4617 1C12.8518 1 13.2063 1.22689 13.3697 1.58115L16.2388 7.80125L23.041 8.60777C23.4284 8.6537 23.7538 8.92075 23.8743 9.2918C23.9949 9.66284 23.8887 10.0701 23.6022 10.335L18.5731 14.9857L19.9081 21.7043C19.9841 22.087 19.8307 22.4789 19.5151 22.7082C19.1995 22.9375 18.7793 22.9623 18.4389 22.7718L12.4617 19.426L6.48446 22.7718C6.14403 22.9623 5.72386 22.9375 5.40823 22.7082C5.09261 22.4789 4.93916 22.087 5.01519 21.7043L6.35016 14.9857L1.32108 10.335C1.03465 10.0701 0.92842 9.66284 1.04898 9.2918C1.16954 8.92075 1.49487 8.6537 1.88229 8.60777L8.68454 7.80125L11.5536 1.58115C11.717 1.22689 12.0715 1 12.4617 1ZM12.4617 4.38751L10.2662 9.14724C10.1205 9.46304 9.82125 9.68049 9.47589 9.72143L4.27069 10.3386L8.11903 13.8974C8.37436 14.1336 8.48868 14.4854 8.4209 14.8265L7.39936 19.9676L11.9732 17.4074C12.2767 17.2375 12.6466 17.2375 12.9501 17.4074L17.5239 19.9676L16.5024 14.8265C16.4346 14.4854 16.5489 14.1336 16.8043 13.8974L20.6526 10.3386L15.4474 9.72143C15.1021 9.68049 14.8028 9.46304 14.6571 9.14724L12.4617 4.38751Z" fill="#545454"/>
</svg>
