<svg width="24" height="24" viewBox="0 0 24 24" fill="none" xmlns="http://www.w3.org/2000/svg">
<path fill-rule="evenodd" clip-rule="evenodd" d="M1 6C1 4.89543 1.89543 4 3 4H14C15.1046 4 16 4.89543 16 6V7.5H19C19.2919 7.5 19.5693 7.62756 19.7593 7.84921L22.7593 11.3492C22.9146 11.5305 23 11.7613 23 12V16C23 16.5523 22.5523 17 22 17H21C21 18.6569 19.6569 20 18 20C16.3431 20 15 18.6569 15 17H9C9 18.6569 7.65685 20 6 20C4.34315 20 3 18.6569 3 17C1.89543 17 1 16.1046 1 15V6ZM3.76389 15C4.31321 14.3863 5.1115 14 6 14C6.8885 14 7.68679 14.3863 8.23611 15H14V6L3 6V15H3.76389ZM16 14.7639V9.5H18.5401L21 12.3699V15H20.2361C19.6868 14.3863 18.8885 14 18 14C17.2316 14 16.5308 14.2889 16 14.7639ZM17.1325 16.5022C17.0482 16.6488 17 16.8188 17 17C17 17.5523 17.4477 18 18 18C18.5523 18 19 17.5523 19 17C19 16.4477 18.5523 16 18 16C17.629 16 17.3051 16.2021 17.1325 16.5022ZM6 16C5.44772 16 5 16.4477 5 17C5 17.5523 5.44772 18 6 18C6.55228 18 7 17.5523 7 17C7 16.4477 6.55228 16 6 16Z" fill="#545454"/>
</svg>
