<svg width="24" height="24" viewBox="0 0 24 24" fill="none" xmlns="http://www.w3.org/2000/svg">
<path fill-rule="evenodd" clip-rule="evenodd" d="M7.08579 6.5L9.58579 4H14.4142L16.9142 6.5H17.5C18.0523 6.5 18.5 6.94772 18.5 7.5C18.5 8.05228 18.0523 8.5 17.5 8.5H6.5C5.94772 8.5 5.5 8.05228 5.5 7.5C5.5 6.94772 5.94772 6.5 6.5 6.5H7.08579ZM13.5858 6L14.0858 6.5H9.91421L10.4142 6H13.5858Z" fill="#545454"/>
<path d="M5.5 11C5.5 10.4477 5.94772 10 6.5 10H8.44599L8.94599 19H15.054L15.554 10H17.5C18.0523 10 18.5 10.4477 18.5 11C18.5 11.5523 18.0523 12 17.5 12H17.446L17.0509 19.1109C16.9921 20.1708 16.1155 21 15.054 21H8.94599C7.88452 21 7.00795 20.1708 6.94907 19.1109L6.55401 12H6.5C5.94772 12 5.5 11.5523 5.5 11Z" fill="#545454"/>
<path d="M12 11C12.5523 11 13 11.4477 13 12V16.5C13 17.0523 12.5523 17.5 12 17.5C11.4477 17.5 11 17.0523 11 16.5V12C11 11.4477 11.4477 11 12 11Z" fill="#545454"/>
</svg>
