<svg width="24" height="24" viewBox="0 0 24 24" fill="none" xmlns="http://www.w3.org/2000/svg">
<path d="M12 15.25C11.4477 15.25 11 14.8023 11 14.25L11 7.25L8.6 9.05C8.15817 9.38137 7.53137 9.29183 7.2 8.85C6.86863 8.40817 6.95817 7.78137 7.4 7.45L12 4L16.6 7.45C17.0418 7.78137 17.1314 8.40817 16.8 8.85C16.4686 9.29183 15.8418 9.38137 15.4 9.05L13 7.25V14.25C13 14.8023 12.5523 15.25 12 15.25Z" fill="#545454"/>
<path d="M4 13C4.55228 13 5 13.4477 5 14V18H19V14C19 13.4477 19.4477 13 20 13C20.5523 13 21 13.4477 21 14V18C21 19.1046 20.1046 20 19 20H5C3.89543 20 3 19.1046 3 18V14C3 13.4477 3.44772 13 4 13Z" fill="#545454"/>
</svg>
