<svg width="24" height="24" viewBox="0 0 24 24" fill="none" xmlns="http://www.w3.org/2000/svg">
<path d="M10.9998 4C10.9998 3.44772 11.4475 3 11.9998 3C12.5521 3 12.9998 3.44772 12.9998 4V14.5859L16.2927 11.293C16.6833 10.9024 17.3163 10.9024 17.7068 11.293C18.0973 11.6835 18.0973 12.3165 17.7068 12.707L12.7068 17.707C12.3163 18.0976 11.6833 18.0976 11.2927 17.707L6.29273 12.707L6.22437 12.6309C5.90402 12.2381 5.92662 11.6591 6.29273 11.293C6.65885 10.9269 7.23785 10.9043 7.63063 11.2246L7.7068 11.293L10.9998 14.5859V4Z" fill="#545454"/>
<path d="M18 19C18.5523 19 19 19.4477 19 20C19 20.5523 18.5523 21 18 21H6C5.44772 21 5 20.5523 5 20C5 19.4477 5.44772 19 6 19H18Z" fill="#545454"/>
</svg>
