<svg width="24" height="24" viewBox="0 0 24 24" fill="none" xmlns="http://www.w3.org/2000/svg">
<path d="M10.2197 17.5093C10.5438 17.1054 11.1176 17.0196 11.543 17.2954L11.626 17.355L13.0254 18.478L13.04 18.4888L13.0537 18.5015L13.3467 18.7534C13.9946 19.313 15 18.8527 15 17.9966V12.6352C15 12.083 15.4477 11.6352 16 11.6352C16.5523 11.6352 17 12.083 17 12.6352V17.9966C17 20.5651 13.9828 21.9461 12.0391 20.2671L11.7578 20.0239L10.374 18.9155L10.2979 18.8472C9.93663 18.4917 9.89588 17.9132 10.2197 17.5093ZM15 6.00536C14.9996 5.20306 14.1159 4.74852 13.4717 5.15575L13.3467 5.2495L10.0166 8.12548C9.47171 8.59605 8.77564 8.85496 8.05566 8.85497H6.5C5.67158 8.85497 5.00001 9.52655 5 10.355V13.6479C5 14.4764 5.67157 15.1479 6.5 15.1479H8.7998V17.1479H6.5C4.567 17.1479 3 15.5809 3 13.6479V10.355C3.00001 8.42199 4.56702 6.85498 6.5 6.85497H8.05566C8.29556 6.85497 8.52739 6.76854 8.70898 6.6118L12.0391 3.73583L12.2236 3.58739C14.1676 2.14386 16.9996 3.51725 17 6.00536V8.63524H15V6.00536Z" fill="#545454"/>
<path d="M20.7069 5.34268L20.7759 5.26672C21.0963 4.87394 21.073 4.29459 20.7069 3.92846C20.3408 3.56233 19.7614 3.53903 19.3686 3.85941L19.2927 3.92846L4.29289 18.9282C3.90237 19.3188 3.90237 19.9519 4.29289 20.3425C4.68342 20.733 5.31658 20.733 5.70711 20.3425L20.7069 5.34268Z" fill="#545454"/>
</svg>
