<svg width="24" height="24" viewBox="0 0 24 24" fill="none" xmlns="http://www.w3.org/2000/svg">
<path d="M14 6.00536C13.9996 5.20306 13.1159 4.74852 12.4717 5.15575L12.3467 5.2495L9.0166 8.12548C8.47171 8.59605 7.77564 8.85496 7.05566 8.85497H5.5C4.67158 8.85497 4.00001 9.52655 4 10.355V13.6479C4 14.4764 4.67157 15.1479 5.5 15.1479H7.05566C7.77563 15.1479 8.47171 15.4069 9.0166 15.8774L12.3467 18.7534C12.9946 19.313 14 18.8527 14 17.9966V6.00536ZM16 17.9966C16 20.5651 12.9828 21.9461 11.0391 20.2671L7.70996 17.3911C7.52831 17.2342 7.2957 17.1479 7.05566 17.1479H5.5C3.567 17.1479 2 15.5809 2 13.6479V10.355C2.00001 8.42199 3.56702 6.85498 5.5 6.85497H7.05566C7.29556 6.85497 7.52739 6.76854 7.70898 6.6118L11.0391 3.73583L11.2236 3.58739C13.1676 2.14386 15.9996 3.51725 16 6.00536V17.9966Z" fill="#545454"/>
<path d="M18.0001 12.002C18.0001 11.213 17.7725 10.4793 17.379 9.86041L17.2003 9.6026L17.1437 9.51764C16.8817 9.08375 16.9856 8.51323 17.3995 8.20221C17.8135 7.89137 18.3907 7.94999 18.7345 8.32233L18.7999 8.40143L18.9376 8.59186C19.6077 9.56029 20.0001 10.7367 20.0001 12.002C20.0001 13.2673 19.6077 14.4437 18.9376 15.4122L18.7999 15.6026C18.4682 16.044 17.841 16.1334 17.3995 15.8018C16.9581 15.4701 16.8688 14.8429 17.2003 14.4014L17.379 14.1436C17.7725 13.5247 18.0001 12.791 18.0001 12.002Z" fill="#545454"/>
<path d="M21.0001 12.002C21.0001 10.1015 20.4121 8.34073 19.4073 6.88873L19.2003 6.6026L19.1437 6.51764C18.8817 6.08375 18.9856 5.51323 19.3995 5.20221C19.8135 4.89137 20.3907 4.94999 20.7345 5.32233L20.7999 5.40143L21.0519 5.75104C22.2802 7.52629 23.0001 9.68138 23.0001 12.002C23.0001 14.3227 22.2802 16.4777 21.0519 18.253L20.7999 18.6026C20.4682 19.044 19.841 19.1334 19.3995 18.8018C18.9581 18.4701 18.8688 17.8429 19.2003 17.4014L19.4073 17.1153C20.4121 15.6633 21.0001 13.9025 21.0001 12.002Z" fill="#545454"/>
</svg>
