<svg width="24" height="24" viewBox="0 0 24 24" fill="none" xmlns="http://www.w3.org/2000/svg">
<path d="M21 10.1699C21 7.96078 19.2091 6.16992 17 6.16992H7C4.79086 6.16992 3 7.96078 3 10.1699V16.1699C3 18.3791 4.79086 20.1699 7 20.1699H17C19.2091 20.1699 21 18.3791 21 16.1699V10.1699ZM23 16.1699C23 19.4836 20.3137 22.1699 17 22.1699H7C3.68629 22.1699 1 19.4836 1 16.1699V10.1699C1 6.85621 3.68629 4.16992 7 4.16992H17C20.3137 4.16992 23 6.85621 23 10.1699V16.1699Z" fill="#545454"/>
<path d="M1 8.74506C1.00012 5.89783 3.00127 3.44227 5.79004 2.86811L14.3906 1.0976L14.6621 1.04975C17.4537 0.6406 20 2.80599 20 5.66987H18C18 4.03306 16.5447 2.79543 14.9492 3.02924L14.7939 3.05659L6.19336 4.8271C4.33421 5.20986 3.00012 6.84694 3 8.74506V12.1699H1V8.74506Z" fill="#545454"/>
<path d="M12 15.6699L12.1025 15.6748C12.6067 15.7261 13 16.1522 13 16.6699C13 17.1876 12.6067 17.6137 12.1025 17.665L12 17.6699H6C5.44772 17.6699 5 17.2222 5 16.6699C5 16.1176 5.44772 15.6699 6 15.6699H12Z" fill="#545454"/>
<path d="M23 9.66992V16.6699H17.5C15.567 16.6699 14 15.1029 14 13.1699C14 11.2369 15.567 9.66992 17.5 9.66992H23ZM16 13.1699C16 13.9983 16.6716 14.6699 17.5 14.6699H21V11.6699H17.5C16.6716 11.6699 16 12.3415 16 13.1699Z" fill="#545454"/>
<path d="M17.7002 12.1699L17.8018 12.1748C18.3063 12.2258 18.7002 12.652 18.7002 13.1699C18.7002 13.6879 18.3063 14.1141 17.8018 14.165L17.7002 14.1699H17.5C16.9477 14.1699 16.5 13.7222 16.5 13.1699C16.5 12.6176 16.9477 12.1699 17.5 12.1699H17.7002Z" fill="#545454"/>
</svg>
