<svg width="24" height="24" viewBox="0 0 24 24" fill="none" xmlns="http://www.w3.org/2000/svg">
<path fill-rule="evenodd" clip-rule="evenodd" d="M12.3305 5.08645C12.0716 4.97118 11.7756 4.97118 11.5167 5.08645C11.4717 5.1065 11.3383 5.18704 11.0666 5.57159C10.7979 5.95184 10.4835 6.49444 10.0193 7.29845L5.16873 15.6999C4.7042 16.5045 4.39133 17.0485 4.19628 17.4716C3.99904 17.8994 3.99596 18.0554 4.00114 18.1047C4.03074 18.3863 4.17862 18.6425 4.40807 18.8092C4.44801 18.8382 4.58444 18.9135 5.05316 18.9565C5.51673 18.9991 6.1438 19.0001 7.07233 19.0001H16.7753C17.7038 19.0001 18.3308 18.9991 18.7944 18.9565C19.263 18.9135 19.3994 18.8382 19.4394 18.8092C19.669 18.6424 19.8169 18.3862 19.8465 18.1047C19.8516 18.0554 19.8486 17.8993 19.6514 17.4715C19.4564 17.0485 19.1435 16.5044 18.679 15.6999L13.8293 7.29986C13.3647 6.49526 13.05 5.95233 12.7812 5.57193C12.5094 5.18728 12.3758 5.1066 12.3305 5.08645ZM10.7033 3.25936C11.48 2.91355 12.3673 2.91355 13.144 3.25936C13.6924 3.50353 14.0831 3.94873 14.4145 4.41769C14.7432 4.88272 15.1037 5.50729 15.5383 6.26007L20.4332 14.7383C20.8682 15.4917 21.2291 16.1167 21.4677 16.6342C21.7081 17.1558 21.8983 17.7168 21.8355 18.3137C21.7466 19.1597 21.3025 19.9277 20.615 20.4272C20.1294 20.78 19.5486 20.8957 18.9771 20.9481C18.4111 21.0001 17.6913 21.0001 16.8241 21.0001H7.02353C6.15626 21.0001 5.43648 21.0001 4.8704 20.9481C4.29889 20.8957 3.71811 20.7801 3.2325 20.4272C2.54482 19.9276 2.10099 19.1595 2.01209 18.3137C1.94934 17.7167 2.13959 17.1557 2.38002 16.6342C2.61847 16.117 2.97914 15.4923 3.41382 14.7395L8.31163 6.2562C8.74519 5.50522 9.10508 4.88183 9.43313 4.41752C9.76428 3.94881 10.1549 3.50352 10.7033 3.25936ZM11.9238 8.00006C12.4761 8.00006 12.9238 8.44777 12.9238 9.00006V13.0001C12.9238 13.5523 12.4761 14.0001 11.9238 14.0001C11.3715 14.0001 10.9238 13.5523 10.9238 13.0001V9.00006C10.9238 8.44777 11.3715 8.00006 11.9238 8.00006ZM10.874 16.0001C10.874 15.4478 11.3217 15.0001 11.874 15.0001H11.9746C12.5269 15.0001 12.9746 15.4478 12.9746 16.0001V16.1001C12.9746 16.6516 12.5281 17.099 11.9765 17.1001L11.8759 17.1003C11.6104 17.1008 11.3555 16.9956 11.1676 16.8081C10.9796 16.6205 10.874 16.3658 10.874 16.1003V16.0001Z" fill="#545454"/>
</svg>
